HIERARCHY
ROOT hip
{
	OFFSET 0.000000 0.000000 0.000000 
	CHANNELS 6 Xposition Yposition Zposition Zrotation Yrotation Xrotation
	JOINT abdomen
	{
		OFFSET 0.000000 20.688101 -0.731520 
		CHANNELS 3 Zrotation Xrotation Yrotation
		JOINT chest
		{
			OFFSET 0.000000 11.704300 -0.487680 
			CHANNELS 3 Zrotation Xrotation Yrotation
			JOINT neck
			{
				OFFSET 0.000000 22.189400 -2.194560 
				CHANNELS 3 Zrotation Xrotation Yrotation
				JOINT head
				{
					OFFSET -0.243840 7.071330 1.219200 
					CHANNELS 3 Zrotation Xrotation Yrotation
					End Site
					{
						OFFSET 1.000000 0.000000 0.000000 
					}
				}
			}
			JOINT rCollar
			{
				OFFSET -2.682240 19.263399 -4.876800 
				CHANNELS 3 Zrotation Xrotation Yrotation
				JOINT rShldr
				{
					OFFSET -8.778240 -1.950730 1.463040 
					CHANNELS 3 Zrotation Xrotation Yrotation
					JOINT rForeArm
					{
						OFFSET -28.174200 -1.711500 0.487680 
						CHANNELS 3 Zrotation Xrotation Yrotation
						JOINT rHand
						{
							OFFSET -22.587900 0.773209 7.071360 
							CHANNELS 3 Zrotation Xrotation Yrotation
							End Site
							{
								OFFSET -1.782710 -1.182140 1.430490 
							}
						}
					}
				}
			}
			JOINT lCollar
			{
				OFFSET 2.682240 19.263399 -4.876800 
				CHANNELS 3 Zrotation Xrotation Yrotation
				JOINT lShldr
				{
					OFFSET 8.778240 -1.950730 1.463040 
					CHANNELS 3 Zrotation Xrotation Yrotation
					JOINT lForeArm
					{
						OFFSET 28.174200 -1.711500 0.487680 
						CHANNELS 3 Zrotation Xrotation Yrotation
						JOINT lHand
						{
							OFFSET 22.587900 0.773209 7.071360 
							CHANNELS 3 Zrotation Xrotation Yrotation
							End Site
							{
								OFFSET 1.782710 -1.182140 1.430490 
							}
						}
					}
				}
			}
		}
	}
	JOINT rButtock
	{
		OFFSET -8.778240 4.350840 1.219200 
		CHANNELS 3 Zrotation Xrotation Yrotation
		JOINT rThigh
		{
			OFFSET 0.000000 -1.706870 -2.194560 
			CHANNELS 3 Zrotation Xrotation Yrotation
			JOINT rShin
			{
				OFFSET 0.000000 -36.819901 0.731520 
				CHANNELS 3 Zrotation Xrotation Yrotation
				JOINT rFoot
				{
					OFFSET 0.731520 -45.110401 -5.120640 
					CHANNELS 3 Zrotation Xrotation Yrotation
					End Site
					{
						OFFSET -1.122100 -3.699640 12.103000 
					}
				}
			}
		}
	}
	JOINT lButtock
	{
		OFFSET 8.778240 4.350840 1.219200 
		CHANNELS 3 Zrotation Xrotation Yrotation
		JOINT lThigh
		{
			OFFSET 0.000000 -1.706870 -2.194560 
			CHANNELS 3 Zrotation Xrotation Yrotation
			JOINT lShin
			{
				OFFSET 0.000000 -36.819901 0.731520 
				CHANNELS 3 Zrotation Xrotation Yrotation
				JOINT lFoot
				{
					OFFSET -0.731520 -45.110401 -5.120640 
					CHANNELS 3 Zrotation Xrotation Yrotation
					End Site
					{
						OFFSET 1.122100 -3.699640 12.103000 
					}
				}
			}
		}
	}
}
MOTION
Frames: 15
Frame Time: 0.008333
-43.798698 82.237396 0.818041 -158.910995 78.100502 -134.675003 -9.654830 29.283100 16.082001 -6.360390 -6.891350 3.566530 4.708210 -6.940470 9.323990 -28.782200 19.238501 25.357000 0.000000 0.000000 0.000000 9.615920 44.528900 76.484299 -26.715000 -44.736900 92.924698 -0.479324 -19.294100 -2.820060 0.000000 0.000000 0.000000 -26.370600 6.765300 -55.919201 15.645900 -8.361750 -28.930000 0.136765 -10.464100 1.487470 -0.000000 0.000000 -0.000000 -5.887640 -25.377199 3.367860 0.031869 14.529400 0.609238 -2.631910 -2.513710 -22.188200 0.000000 0.000000 0.000000 16.995100 -50.553001 2.722570 0.222512 29.878700 -0.342051 0.711103 -4.179460 -1.306500 
-43.806499 82.214699 0.804462 -158.973999 78.218300 -134.759003 -9.723010 29.353701 16.096399 -6.308340 -6.919380 3.566420 4.670700 -7.053930 9.331320 -28.932600 19.307400 25.445999 0.000000 0.000000 0.000000 9.864090 44.653801 76.051598 -26.623301 -44.944599 93.360603 -0.493174 -19.558800 -2.861920 0.000000 0.000000 0.000000 -26.370300 6.681340 -55.864498 15.603600 -8.322270 -28.844000 0.141141 -10.592900 1.506340 -0.000000 0.000000 -0.000000 -5.971600 -25.507200 3.326600 0.032405 14.758300 0.610776 -2.692700 -2.639490 -22.069300 0.000000 0.000000 0.000000 17.031000 -50.551800 2.946880 0.223212 29.947599 -0.342229 0.691009 -4.238760 -1.400230 
-43.814201 82.189903 0.788539 -159.039001 78.362701 -134.860992 -9.800380 29.436300 16.050600 -6.212160 -6.939860 3.552040 4.612920 -7.158190 9.374630 -29.170401 19.276199 25.600100 0.000000 0.000000 0.000000 10.100800 44.829800 75.485001 -26.507299 -45.205898 93.902702 -0.509577 -19.863600 -2.910340 0.000000 0.000000 0.000000 -26.490700 6.458370 -55.720402 15.531600 -8.257250 -28.694099 0.141089 -10.584500 1.505160 -0.000000 0.000000 -0.000000 -6.070830 -25.667999 3.266440 0.032925 15.000700 0.611947 -2.748190 -2.763170 -21.913000 0.000000 0.000000 0.000000 17.050900 -50.553902 3.135540 0.223975 30.023600 -0.342524 0.681087 -4.297300 -1.432620 
-43.841999 82.154503 0.782697 -158.897995 78.514397 -134.735001 -9.852500 29.531300 15.895700 -6.066660 -6.945020 3.512830 4.547010 -7.227420 9.479400 -29.556499 19.061899 25.849899 0.000000 0.000000 0.000000 10.328000 45.116901 74.684898 -26.363800 -45.533100 94.563499 -0.524004 -20.125799 -2.952180 0.000000 0.000000 0.000000 -26.865299 5.976480 -55.435501 15.404600 -8.145620 -28.425699 0.130904 -10.261100 1.457890 -0.000000 0.000000 -0.000000 -6.177690 -25.889999 3.169590 0.033402 15.260400 0.612967 -2.799970 -2.890720 -21.716101 0.000000 0.000000 0.000000 17.048100 -50.582699 3.226300 0.224813 30.105301 -0.342773 0.689561 -4.341240 -1.360750 
-43.885502 82.129601 0.779584 -158.720993 78.673798 -134.550995 -9.860880 29.664101 15.534200 -5.814900 -6.925310 3.426990 4.455440 -7.243300 9.689360 -30.194700 18.520399 26.262699 0.000000 0.000000 0.000000 10.598400 45.587700 73.403000 -26.156500 -45.995701 95.487503 -0.538577 -20.388000 -2.994120 0.000000 0.000000 0.000000 -27.736000 4.979830 -54.924500 15.167400 -7.940320 -27.924700 0.103785 -9.316430 1.320520 -0.000000 0.000000 -0.000000 -6.290950 -26.184601 3.045350 0.033937 15.547100 0.614254 -2.855480 -3.032590 -21.503500 0.000000 0.000000 0.000000 16.998501 -50.654598 3.154940 0.225756 30.197201 -0.343056 0.724153 -4.372420 -1.141060 
-43.950500 82.108200 0.772055 -158.688995 78.840401 -134.470993 -9.844890 29.824900 15.019300 -5.478040 -6.887340 3.306490 4.338420 -7.223290 9.978530 -31.012100 17.740499 26.802700 0.000000 0.000000 0.000000 10.923400 46.160702 71.722397 -25.878901 -46.551498 96.649300 -0.554719 -20.672600 -3.039830 0.000000 0.000000 0.000000 -28.938101 3.575260 -54.277199 14.844200 -7.662780 -27.254700 0.072200 -7.931330 1.121110 -0.000000 0.000000 -0.000000 -6.415650 -26.534500 2.898050 0.034506 15.855900 0.615580 -2.911100 -3.182780 -21.268400 0.000000 0.000000 0.000000 16.912399 -50.753799 2.969870 0.226790 30.298401 -0.343423 0.778910 -4.396250 -0.807107 
-44.033501 82.085701 0.773062 -158.365005 79.110001 -134.050003 -9.828830 29.961901 14.528500 -5.168110 -6.847580 3.191450 4.234860 -7.195400 10.267900 -31.811701 16.986000 27.345501 0.000000 0.000000 0.000000 11.221800 46.688702 70.072098 -25.590200 -47.056801 97.780502 -0.565917 -20.867300 -3.071210 0.000000 0.000000 0.000000 -30.012800 2.209760 -53.673100 14.534100 -7.397670 -26.626200 0.051797 -6.659010 0.939736 -0.000000 0.000000 -0.000000 -6.554520 -26.926800 2.702000 0.034908 16.168600 0.616184 -2.951520 -3.322660 -20.959600 0.000000 0.000000 0.000000 16.834801 -50.855499 2.778400 0.227856 30.399700 -0.343650 0.841281 -4.404340 -0.431746 
-44.122299 82.062698 0.785388 -157.600006 79.499397 -133.154999 -9.840170 30.025700 14.241500 -4.997370 -6.822560 3.121960 4.184270 -7.187700 10.478700 -32.411598 16.515100 27.765400 -0.000000 0.000000 0.000000 11.374800 47.068600 68.938202 -25.377300 -47.388302 98.573997 -0.565231 -20.860001 -3.069940 -0.000000 0.000000 0.000000 -30.534300 1.371880 -53.232800 14.343500 -7.234960 -26.247801 0.045148 -6.052990 0.853903 -0.000000 0.000000 -0.000000 -6.711050 -27.348499 2.431130 0.034959 16.467199 0.615297 -2.961440 -3.433510 -20.525999 0.000000 0.000000 0.000000 16.812700 -50.935398 2.689040 0.228893 30.492100 -0.343514 0.898380 -4.388400 -0.087848 
-44.204102 82.042900 0.801618 -156.636993 79.924103 -132.033997 -9.880940 29.975201 14.249800 -5.052080 -6.823800 3.117440 4.206440 -7.212990 10.572500 -32.746201 16.470400 28.015200 -0.000000 0.000000 0.000000 11.285400 47.301701 68.621803 -25.306700 -47.488300 98.829300 -0.543321 -20.488899 -3.009970 -0.000000 0.000000 0.000000 -30.210899 1.381610 -52.988499 14.343700 -7.233830 -26.250999 0.050295 -6.471660 0.913285 -0.000000 0.000000 -0.000000 -6.895600 -27.849001 2.020790 0.034589 16.779100 0.612590 -2.927580 -3.505740 -19.884600 0.000000 0.000000 0.000000 16.884701 -51.008900 2.744900 0.230184 30.596201 -0.343222 0.946895 -4.341950 0.208521 
-44.269501 82.030701 0.818051 -155.462997 80.394699 -130.703003 -9.938870 29.846800 14.443600 -5.253670 -6.840130 3.153580 4.277290 -7.254600 10.597400 -32.927101 16.686501 28.167000 -0.000000 -0.000000 0.000000 11.014200 47.458500 68.842796 -25.334900 -47.444000 98.725502 -0.508102 -19.857700 -2.909000 -0.000000 -0.000000 0.000000 -29.348000 1.939920 -52.855099 14.466400 -7.336530 -26.498501 0.066896 -7.549570 1.066780 -0.000000 0.000000 -0.000000 -7.110120 -28.416401 1.500850 0.033945 17.103300 0.608503 -2.861460 -3.550210 -19.085600 0.000000 0.000000 0.000000 17.018200 -51.081699 2.884130 0.231659 30.709299 -0.342805 0.993000 -4.270850 0.495054 
-44.321899 82.037804 0.836729 -154.018997 80.890999 -129.128998 -10.021500 29.708099 14.700700 -5.467250 -6.854060 3.204900 4.370890 -7.296500 10.603300 -33.043999 16.956900 28.272499 -0.000000 -0.000000 0.000000 10.668000 47.557800 69.232101 -25.393400 -47.355900 98.511398 -0.476597 -19.252399 -2.813290 -0.000000 -0.000000 0.000000 -28.426701 2.620750 -52.750000 14.612900 -7.459870 -26.795601 0.092293 -8.754590 1.239750 -0.000000 0.000000 -0.000000 -7.339970 -28.946699 0.989564 0.033162 17.378700 0.603414 -2.785340 -3.579030 -18.278000 0.000000 0.000000 0.000000 17.152700 -51.115101 3.057940 0.232726 30.786699 -0.341767 1.038060 -4.185430 0.779523 
-44.358898 82.072502 0.844075 -152.671997 81.403198 -127.705002 -10.138300 29.627001 14.899700 -5.558010 -6.848070 3.245880 4.461420 -7.322620 10.640300 -33.184898 17.075701 28.381399 -0.000000 -0.000000 -0.000000 10.358800 47.622299 69.415100 -25.414600 -47.325901 98.434196 -0.462154 -18.959000 -2.767290 -0.000000 -0.000000 -0.000000 -27.926500 2.995500 -52.571098 14.687000 -7.522380 -26.946899 0.113298 -9.554900 1.355570 -0.000000 0.000000 -0.000000 -7.561600 -29.337500 0.609340 0.032341 17.544500 0.597696 -2.721080 -3.605030 -17.610399 0.000000 0.000000 0.000000 17.226700 -51.070599 3.216710 0.232792 30.783600 -0.339616 1.083630 -4.096000 1.069710 
-44.379002 82.125603 0.828603 -151.806000 81.954102 -126.835999 -10.343900 29.637501 15.055000 -5.469340 -6.815170 3.280160 4.555090 -7.328460 10.727300 -33.360699 16.977301 28.501699 -0.000000 -0.000000 -0.000000 10.037500 47.628700 69.324501 -25.386801 -47.372299 98.538200 -0.470453 -19.124100 -2.793230 -0.000000 -0.000000 -0.000000 -28.047501 2.914320 -52.280998 14.650000 -7.491340 -26.871000 0.119688 -9.771620 1.387090 -0.000000 0.000000 -0.000000 -7.774920 -29.528000 0.423233 0.031342 17.560101 0.590731 -2.675320 -3.638650 -17.120800 0.000000 0.000000 0.000000 17.200500 -50.888599 3.354480 0.231396 30.662001 -0.335742 1.133230 -3.997890 1.387730 
-44.388802 82.181702 0.815770 -151.130997 82.455597 -126.191002 -10.616800 29.698000 15.216000 -5.280080 -6.765470 3.317860 4.661260 -7.322670 10.835700 -33.527401 16.775801 28.608299 0.000000 -0.000000 -0.000000 9.671090 47.574200 69.148201 -25.343399 -47.443501 98.699501 -0.493527 -19.571800 -2.863860 0.000000 -0.000000 -0.000000 -28.504999 2.611380 -51.936401 14.557600 -7.413830 -26.681900 0.117796 -9.700820 1.376820 -0.000000 0.000000 -0.000000 -7.983580 -29.585100 0.359037 0.030111 17.466000 0.582567 -2.636520 -3.670930 -16.730400 0.000000 0.000000 0.000000 17.112700 -50.606098 3.493880 0.228991 30.454399 -0.330589 1.184570 -3.888070 1.722730 
-44.397900 82.247803 0.825595 -150.276993 82.794701 -125.346001 -10.852600 29.763599 15.314900 -5.058610 -6.707170 3.343210 4.758850 -7.308830 10.944500 -33.690399 16.534300 28.700899 0.000000 -0.000000 -0.000000 9.398130 47.516899 68.894096 -25.286301 -47.536999 98.910698 -0.522383 -20.104200 -2.948580 0.000000 -0.000000 -0.000000 -29.052900 2.234190 -51.563202 14.456700 -7.329350 -26.476900 0.112881 -9.523330 1.351060 -0.000000 0.000000 -0.000000 -8.166770 -29.598400 0.337732 0.028873 17.323299 0.574576 -2.599120 -3.685900 -16.413000 0.000000 0.000000 0.000000 17.020300 -50.329700 3.628720 0.226344 30.222099 -0.325235 1.231030 -3.779320 2.033070 
